<svg width="24" height="37" viewBox="0 0 24 37" fill="none" xmlns="http://www.w3.org/2000/svg">
<mask id="path-1-outside-1_1_9" maskUnits="userSpaceOnUse" x="3" y="12" width="17" height="20" fill="black">
<rect fill="white" x="3" y="12" width="17" height="20"/>
<path d="M7.13636 20.5V31H4.45455V13.5455H7.04545V16.2727H7.27273C7.68182 15.3864 8.30303 14.6742 9.13636 14.1364C9.9697 13.5909 11.0455 13.3182 12.3636 13.3182C13.5455 13.3182 14.5795 13.5606 15.4659 14.0455C16.3523 14.5227 17.0417 15.25 17.5341 16.2273C18.0265 17.197 18.2727 18.4242 18.2727 19.9091V31H15.5909V20.0909C15.5909 18.7197 15.2348 17.6515 14.5227 16.8864C13.8106 16.1136 12.8333 15.7273 11.5909 15.7273C10.7348 15.7273 9.9697 15.9129 9.29545 16.2841C8.62879 16.6553 8.10227 17.197 7.71591 17.9091C7.32955 18.6212 7.13636 19.4848 7.13636 20.5Z"/>
</mask>
<path d="M7.13636 20.5V31H4.45455V13.5455H7.04545V16.2727H7.27273C7.68182 15.3864 8.30303 14.6742 9.13636 14.1364C9.9697 13.5909 11.0455 13.3182 12.3636 13.3182C13.5455 13.3182 14.5795 13.5606 15.4659 14.0455C16.3523 14.5227 17.0417 15.25 17.5341 16.2273C18.0265 17.197 18.2727 18.4242 18.2727 19.9091V31H15.5909V20.0909C15.5909 18.7197 15.2348 17.6515 14.5227 16.8864C13.8106 16.1136 12.8333 15.7273 11.5909 15.7273C10.7348 15.7273 9.9697 15.9129 9.29545 16.2841C8.62879 16.6553 8.10227 17.197 7.71591 17.9091C7.32955 18.6212 7.13636 19.4848 7.13636 20.5Z" fill="#2B9D30"/>
<path d="M7.13636 31V32H8.13636V31H7.13636ZM4.45455 31H3.45455V32H4.45455V31ZM4.45455 13.5455V12.5455H3.45455V13.5455H4.45455ZM7.04545 13.5455H8.04545V12.5455H7.04545V13.5455ZM7.04545 16.2727H6.04545V17.2727H7.04545V16.2727ZM7.27273 16.2727V17.2727H7.91256L8.18069 16.6918L7.27273 16.2727ZM9.13636 14.1364L9.67868 14.9766L9.68402 14.9731L9.13636 14.1364ZM15.4659 14.0455L14.986 14.9228L14.9918 14.9259L15.4659 14.0455ZM17.5341 16.2273L16.641 16.6773L16.6425 16.68L17.5341 16.2273ZM18.2727 31V32H19.2727V31H18.2727ZM15.5909 31H14.5909V32H15.5909V31ZM14.5227 16.8864L13.7874 17.5641L13.7907 17.5676L14.5227 16.8864ZM9.29545 16.2841L8.81315 15.4081L8.80897 15.4104L9.29545 16.2841ZM7.71591 17.9091L6.83694 17.4322L6.83694 17.4322L7.71591 17.9091ZM6.13636 20.5V31H8.13636V20.5H6.13636ZM7.13636 30H4.45455V32H7.13636V30ZM5.45455 31V13.5455H3.45455V31H5.45455ZM4.45455 14.5455H7.04545V12.5455H4.45455V14.5455ZM6.04545 13.5455V16.2727H8.04545V13.5455H6.04545ZM7.04545 17.2727H7.27273V15.2727H7.04545V17.2727ZM8.18069 16.6918C8.50896 15.9805 9.00199 15.4133 9.67866 14.9765L8.59406 13.2962C7.60407 13.9352 6.85468 14.7922 6.36477 15.8537L8.18069 16.6918ZM9.68402 14.9731C10.3096 14.5636 11.1783 14.3182 12.3636 14.3182V12.3182C10.9126 12.3182 9.62975 12.6183 8.5887 13.2997L9.68402 14.9731ZM12.3636 14.3182C13.4063 14.3182 14.27 14.5311 14.986 14.9228L15.9458 13.1681C14.8891 12.5901 13.6846 12.3182 12.3636 12.3182V14.3182ZM14.9918 14.9259C15.6819 15.2975 16.2324 15.8663 16.6411 16.6773L18.4271 15.7773C17.8509 14.6337 17.0227 13.748 15.94 13.165L14.9918 14.9259ZM16.6425 16.68C17.0425 17.4678 17.2727 18.527 17.2727 19.9091H19.2727C19.2727 18.3214 19.0105 16.9262 18.4257 15.7745L16.6425 16.68ZM17.2727 19.9091V31H19.2727V19.9091H17.2727ZM18.2727 30H15.5909V32H18.2727V30ZM16.5909 31V20.0909H14.5909V31H16.5909ZM16.5909 20.0909C16.5909 18.5479 16.1873 17.2071 15.2547 16.2051L13.7907 17.5676C14.2824 18.0959 14.5909 18.8915 14.5909 20.0909H16.5909ZM15.2581 16.2087C14.322 15.193 13.0572 14.7273 11.5909 14.7273V16.7273C12.6095 16.7273 13.2992 17.0343 13.7874 17.564L15.2581 16.2087ZM11.5909 14.7273C10.5855 14.7273 9.65117 14.9467 8.81316 15.4081L9.77775 17.1601C10.2882 16.8791 10.8842 16.7273 11.5909 16.7273V14.7273ZM8.80897 15.4104C7.96607 15.8797 7.30797 16.564 6.83694 17.4322L8.59487 18.386C8.89657 17.8299 9.29151 17.4309 9.78194 17.1578L8.80897 15.4104ZM6.83694 17.4322C6.35351 18.3232 6.13636 19.3597 6.13636 20.5H8.13636C8.13636 19.61 8.30558 18.9192 8.59487 18.386L6.83694 17.4322Z" fill="black" mask="url(#path-1-outside-1_1_9)"/>
<mask id="path-3-outside-2_1_9" maskUnits="userSpaceOnUse" x="7" y="12" width="16" height="20" fill="black">
<rect fill="white" x="7" y="12" width="16" height="20"/>
<path d="M8.39773 27.4205V25.6818L16.0682 13.5455H17.3295V16.2386H16.4773L10.6818 25.4091V25.5455H21.0114V27.4205H8.39773ZM16.6136 31V26.892V26.0824V13.5455H18.625V31H16.6136Z"/>
</mask>
<path d="M8.39773 27.4205V25.6818L16.0682 13.5455H17.3295V16.2386H16.4773L10.6818 25.4091V25.5455H21.0114V27.4205H8.39773ZM16.6136 31V26.892V26.0824V13.5455H18.625V31H16.6136Z" fill="#5DA9EE"/>
<path d="M8.39773 27.4205H7.39773V28.4205H8.39773V27.4205ZM8.39773 25.6818L7.55241 25.1476L7.39773 25.3923V25.6818H8.39773ZM16.0682 13.5455V12.5455H15.5172L15.2229 13.0112L16.0682 13.5455ZM17.3295 13.5455H18.3295V12.5455H17.3295V13.5455ZM17.3295 16.2386V17.2386H18.3295V16.2386H17.3295ZM16.4773 16.2386V15.2386H15.9263L15.6319 15.7044L16.4773 16.2386ZM10.6818 25.4091L9.83648 24.8749L9.68182 25.1196V25.4091H10.6818ZM10.6818 25.5455H9.68182V26.5455H10.6818V25.5455ZM21.0114 25.5455H22.0114V24.5455H21.0114V25.5455ZM21.0114 27.4205V28.4205H22.0114V27.4205H21.0114ZM16.6136 31H15.6136V32H16.6136V31ZM16.6136 13.5455V12.5455H15.6136V13.5455H16.6136ZM18.625 13.5455H19.625V12.5455H18.625V13.5455ZM18.625 31V32H19.625V31H18.625ZM9.39773 27.4205V25.6818H7.39773V27.4205H9.39773ZM9.24305 26.2161L16.9135 14.0797L15.2229 13.0112L7.55241 25.1476L9.24305 26.2161ZM16.0682 14.5455H17.3295V12.5455H16.0682V14.5455ZM16.3295 13.5455V16.2386H18.3295V13.5455H16.3295ZM17.3295 15.2386H16.4773V17.2386H17.3295V15.2386ZM15.6319 15.7044L9.83648 24.8749L11.5272 25.9433L17.3226 16.7729L15.6319 15.7044ZM9.68182 25.4091V25.5455H11.6818V25.4091H9.68182ZM10.6818 26.5455H21.0114V24.5455H10.6818V26.5455ZM20.0114 25.5455V27.4205H22.0114V25.5455H20.0114ZM21.0114 26.4205H8.39773V28.4205H21.0114V26.4205ZM17.6136 31V26.892H15.6136V31H17.6136ZM17.6136 26.892V26.0824H15.6136V26.892H17.6136ZM17.6136 26.0824V13.5455H15.6136V26.0824H17.6136ZM16.6136 14.5455H18.625V12.5455H16.6136V14.5455ZM17.625 13.5455V31H19.625V13.5455H17.625ZM18.625 30H16.6136V32H18.625V30Z" fill="black" mask="url(#path-3-outside-2_1_9)"/>
</svg>
