<svg width="48" height="48" viewBox="0 0 48 48" fill="none" xmlns="http://www.w3.org/2000/svg">
<mask id="path-1-outside-1_3_4" maskUnits="userSpaceOnUse" x="5" y="5" width="31" height="38" fill="black">
<rect fill="white" x="5" y="5" width="31" height="38"/>
<path d="M12.2727 21V42H6.90909V7.09091H12.0909V12.5455H12.5455C13.3636 10.7727 14.6061 9.34849 16.2727 8.27273C17.9394 7.18182 20.0909 6.63636 22.7273 6.63636C25.0909 6.63636 27.1591 7.12121 28.9318 8.09091C30.7045 9.04545 32.0833 10.5 33.0682 12.4545C34.053 14.3939 34.5455 16.8485 34.5455 19.8182V42H29.1818V20.1818C29.1818 17.4394 28.4697 15.303 27.0455 13.7727C25.6212 12.2273 23.6667 11.4545 21.1818 11.4545C19.4697 11.4545 17.9394 11.8258 16.5909 12.5682C15.2576 13.3106 14.2045 14.3939 13.4318 15.8182C12.6591 17.2424 12.2727 18.9697 12.2727 21Z"/>
</mask>
<path d="M12.2727 21V42H6.90909V7.09091H12.0909V12.5455H12.5455C13.3636 10.7727 14.6061 9.34849 16.2727 8.27273C17.9394 7.18182 20.0909 6.63636 22.7273 6.63636C25.0909 6.63636 27.1591 7.12121 28.9318 8.09091C30.7045 9.04545 32.0833 10.5 33.0682 12.4545C34.053 14.3939 34.5455 16.8485 34.5455 19.8182V42H29.1818V20.1818C29.1818 17.4394 28.4697 15.303 27.0455 13.7727C25.6212 12.2273 23.6667 11.4545 21.1818 11.4545C19.4697 11.4545 17.9394 11.8258 16.5909 12.5682C15.2576 13.3106 14.2045 14.3939 13.4318 15.8182C12.6591 17.2424 12.2727 18.9697 12.2727 21Z" fill="#2B9D30"/>
<path d="M12.2727 42V43H13.2727V42H12.2727ZM6.90909 42H5.90909V43H6.90909V42ZM6.90909 7.09091V6.09091H5.90909V7.09091H6.90909ZM12.0909 7.09091H13.0909V6.09091H12.0909V7.09091ZM12.0909 12.5455H11.0909V13.5455H12.0909V12.5455ZM12.5455 12.5455V13.5455H13.1853L13.4534 12.9645L12.5455 12.5455ZM16.2727 8.27273L16.815 9.11293L16.8204 9.10943L16.2727 8.27273ZM28.9318 8.09091L28.4519 8.96825L28.4577 8.97138L28.9318 8.09091ZM33.0682 12.4545L32.1751 12.9045L32.1766 12.9073L33.0682 12.4545ZM34.5455 42V43H35.5455V42H34.5455ZM29.1818 42H28.1818V43H29.1818V42ZM27.0455 13.7727L26.3101 14.4504L26.3134 14.454L27.0455 13.7727ZM16.5909 12.5682L16.1086 11.6922L16.1044 11.6945L16.5909 12.5682ZM13.4318 15.8182L12.5529 15.3413L12.5529 15.3413L13.4318 15.8182ZM11.2727 21V42H13.2727V21H11.2727ZM12.2727 41H6.90909V43H12.2727V41ZM7.90909 42V7.09091H5.90909V42H7.90909ZM6.90909 8.09091H12.0909V6.09091H6.90909V8.09091ZM11.0909 7.09091V12.5455H13.0909V7.09091H11.0909ZM12.0909 13.5455H12.5455V11.5455H12.0909V13.5455ZM13.4534 12.9645C14.1908 11.3669 15.305 10.0876 16.815 9.11291L15.7304 7.43254C13.9071 8.60942 12.5365 10.1786 11.6375 12.1264L13.4534 12.9645ZM16.8204 9.10943C18.2793 8.15448 20.2237 7.63636 22.7273 7.63636V5.63636C19.9581 5.63636 17.5994 6.20916 15.7251 7.43603L16.8204 9.10943ZM22.7273 7.63636C24.9518 7.63636 26.8495 8.09172 28.4519 8.96823L29.4117 7.21359C27.4686 6.15071 25.23 5.63636 22.7273 5.63636V7.63636ZM28.4577 8.97138C30.0342 9.82023 31.2741 11.1163 32.1751 12.9045L33.9612 12.0046C32.8926 9.88372 31.3749 8.27068 29.4059 7.21044L28.4577 8.97138ZM32.1766 12.9073C33.069 14.6647 33.5455 16.9513 33.5455 19.8182H35.5455C35.5455 16.7457 35.0371 14.1231 33.9598 12.0018L32.1766 12.9073ZM33.5455 19.8182V42H35.5455V19.8182H33.5455ZM34.5455 41H29.1818V43H34.5455V41ZM30.1818 42V20.1818H28.1818V42H30.1818ZM30.1818 20.1818C30.1818 17.2676 29.4222 14.8586 27.7775 13.0914L26.3134 14.454C27.5172 15.7474 28.1818 17.6112 28.1818 20.1818H30.1818ZM27.7808 13.095C26.1326 11.3066 23.8905 10.4545 21.1818 10.4545V12.4545C23.4428 12.4545 25.1098 13.1479 26.3101 14.4504L27.7808 13.095ZM21.1818 10.4545C19.3204 10.4545 17.6209 10.8596 16.1086 11.6922L17.0732 13.4442C18.2579 12.7919 19.619 12.4545 21.1818 12.4545V10.4545ZM16.1044 11.6945C14.5949 12.535 13.4102 13.761 12.5529 15.3413L14.3108 16.2951C14.9988 15.0269 15.9203 14.0862 17.0774 13.4419L16.1044 11.6945ZM12.5529 15.3413C11.6831 16.9445 11.2727 18.8445 11.2727 21H13.2727C13.2727 19.0949 13.6351 17.5404 14.3108 16.2951L12.5529 15.3413Z" fill="black" mask="url(#path-1-outside-1_3_4)"/>
<mask id="path-3-outside-2_3_4" maskUnits="userSpaceOnUse" x="15" y="6" width="29" height="37" fill="black">
<rect fill="white" x="15" y="6" width="29" height="37"/>
<path d="M16.7955 34.8409V31.3636L32.1364 7.09091H34.6591V12.4773H32.9545L21.3636 30.8182V31.0909H42.0227V34.8409H16.7955ZM33.2273 42V33.7841V32.1648V7.09091H37.25V42H33.2273Z"/>
</mask>
<path d="M16.7955 34.8409V31.3636L32.1364 7.09091H34.6591V12.4773H32.9545L21.3636 30.8182V31.0909H42.0227V34.8409H16.7955ZM33.2273 42V33.7841V32.1648V7.09091H37.25V42H33.2273Z" fill="#5DA9EE"/>
<path d="M16.7955 34.8409H15.7955V35.8409H16.7955V34.8409ZM16.7955 31.3636L15.9501 30.8294L15.7955 31.0741V31.3636H16.7955ZM32.1364 7.09091V6.09091H31.5854L31.291 6.55665L32.1364 7.09091ZM34.6591 7.09091H35.6591V6.09091H34.6591V7.09091ZM34.6591 12.4773V13.4773H35.6591V12.4773H34.6591ZM32.9545 12.4773V11.4773H32.4036L32.1092 11.943L32.9545 12.4773ZM21.3636 30.8182L20.5183 30.284L20.3636 30.5287V30.8182H21.3636ZM21.3636 31.0909H20.3636V32.0909H21.3636V31.0909ZM42.0227 31.0909H43.0227V30.0909H42.0227V31.0909ZM42.0227 34.8409V35.8409H43.0227V34.8409H42.0227ZM33.2273 42H32.2273V43H33.2273V42ZM33.2273 7.09091V6.09091H32.2273V7.09091H33.2273ZM37.25 7.09091H38.25V6.09091H37.25V7.09091ZM37.25 42V43H38.25V42H37.25ZM17.7955 34.8409V31.3636H15.7955V34.8409H17.7955ZM17.6408 31.8979L32.9817 7.62517L31.291 6.55665L15.9501 30.8294L17.6408 31.8979ZM32.1364 8.09091H34.6591V6.09091H32.1364V8.09091ZM33.6591 7.09091V12.4773H35.6591V7.09091H33.6591ZM34.6591 11.4773H32.9545V13.4773H34.6591V11.4773ZM32.1092 11.943L20.5183 30.284L22.209 31.3524L33.7999 13.0115L32.1092 11.943ZM20.3636 30.8182V31.0909H22.3636V30.8182H20.3636ZM21.3636 32.0909H42.0227V30.0909H21.3636V32.0909ZM41.0227 31.0909V34.8409H43.0227V31.0909H41.0227ZM42.0227 33.8409H16.7955V35.8409H42.0227V33.8409ZM34.2273 42V33.7841H32.2273V42H34.2273ZM34.2273 33.7841V32.1648H32.2273V33.7841H34.2273ZM34.2273 32.1648V7.09091H32.2273V32.1648H34.2273ZM33.2273 8.09091H37.25V6.09091H33.2273V8.09091ZM36.25 7.09091V42H38.25V7.09091H36.25ZM37.25 41H33.2273V43H37.25V41Z" fill="black" mask="url(#path-3-outside-2_3_4)"/>
</svg>
